<mxfile host="app.diagrams.net" agent="Mozilla/5.0 (Linux; Android 10; K) AppleWebKit/537.36 (KHTML, like Gecko) Chrome/132.0.0.0 Safari/537.36" version="26.0.10">
  <diagram name="PÃ¡gina-1" id="JNmMD94yKcEm7wGBPeWL">
    <mxGraphModel dx="647" dy="736" grid="0" gridSize="10" guides="1" tooltips="1" connect="1" arrows="1" fold="1" page="0" pageScale="1" pageWidth="827" pageHeight="1169" math="0" shadow="0">
      <root>
        <mxCell id="0" />
        <mxCell id="1" parent="0" />
        <mxCell id="vXyiiHO8OHxDcWH09wQb-9" value="" style="edgeStyle=none;curved=1;rounded=0;orthogonalLoop=1;jettySize=auto;html=1;fontSize=12;startSize=8;endSize=8;" parent="1" source="vXyiiHO8OHxDcWH09wQb-1" target="vXyiiHO8OHxDcWH09wQb-8" edge="1">
          <mxGeometry relative="1" as="geometry" />
        </mxCell>
        <mxCell id="vXyiiHO8OHxDcWH09wQb-1" value="" style="ellipse;whiteSpace=wrap;html=1;" parent="1" vertex="1">
          <mxGeometry x="94.99000000000001" y="-215" width="218" height="97" as="geometry" />
        </mxCell>
        <mxCell id="vXyiiHO8OHxDcWH09wQb-7" value="&lt;font style=&quot;vertical-align: inherit;&quot;&gt;&lt;font style=&quot;vertical-align: inherit;&quot;&gt;&lt;font style=&quot;vertical-align: inherit;&quot;&gt;&lt;font style=&quot;vertical-align: inherit;&quot;&gt;&lt;font style=&quot;vertical-align: inherit;&quot;&gt;&lt;font style=&quot;vertical-align: inherit;&quot;&gt;Inicio&lt;/font&gt;&lt;/font&gt;&lt;/font&gt;&lt;/font&gt;&lt;/font&gt;&lt;/font&gt;" style="text;strokeColor=none;fillColor=none;html=1;align=center;verticalAlign=middle;whiteSpace=wrap;rounded=0;fontSize=16;" parent="1" vertex="1">
          <mxGeometry x="165" y="-181.5" width="98" height="30" as="geometry" />
        </mxCell>
        <mxCell id="vXyiiHO8OHxDcWH09wQb-11" value="" style="edgeStyle=none;curved=1;rounded=0;orthogonalLoop=1;jettySize=auto;html=1;fontSize=12;startSize=8;endSize=8;" parent="1" source="vXyiiHO8OHxDcWH09wQb-8" target="vXyiiHO8OHxDcWH09wQb-10" edge="1">
          <mxGeometry relative="1" as="geometry" />
        </mxCell>
        <mxCell id="vXyiiHO8OHxDcWH09wQb-8" value="" style="whiteSpace=wrap;html=1;" parent="1" vertex="1">
          <mxGeometry x="118" y="-90" width="173" height="60" as="geometry" />
        </mxCell>
        <mxCell id="vXyiiHO8OHxDcWH09wQb-10" value="" style="shape=parallelogram;perimeter=parallelogramPerimeter;whiteSpace=wrap;html=1;fixedSize=1;" parent="1" vertex="1">
          <mxGeometry x="25.34" y="12.999999999999998" width="356" height="60" as="geometry" />
        </mxCell>
        <mxCell id="vXyiiHO8OHxDcWH09wQb-39" value="" style="edgeStyle=none;curved=1;rounded=0;orthogonalLoop=1;jettySize=auto;html=1;fontSize=12;startSize=8;endSize=8;exitX=0.031;exitY=0.848;exitDx=0;exitDy=0;exitPerimeter=0;" parent="1" edge="1">
          <mxGeometry relative="1" as="geometry">
            <mxPoint x="198.99075289949178" y="211.00152926773842" as="sourcePoint" />
            <mxPoint x="199.00000000000023" y="211.01070215774166" as="targetPoint" />
            <Array as="points" />
          </mxGeometry>
        </mxCell>
        <mxCell id="vXyiiHO8OHxDcWH09wQb-40" value="&lt;font style=&quot;vertical-align: inherit;&quot;&gt;&lt;font style=&quot;vertical-align: inherit;&quot;&gt;Fin&lt;/font&gt;&lt;/font&gt;" style="ellipse;whiteSpace=wrap;html=1;" parent="1" vertex="1">
          <mxGeometry x="112.11000000000001" y="383" width="171.88" height="80" as="geometry" />
        </mxCell>
        <mxCell id="vXyiiHO8OHxDcWH09wQb-64" value="" style="shape=stencil(lVbLctswDPwaXTEEQfBxTpP/yEycWhPXzjhOH39fqCoVA5aQyY2mseICiwU50N3b/vF1N8TwdjmfXna/xqfLfqBvQ4zjcb87jxdZDXQ/0N3z6bz7fj69H5/m36+PU+S0+nH6OX3h94xLUNIEiuHP/40KpfzbeZjjD+PxKj4itKwBBCFuA1KD2hQgZojOCY0h6BNC31iPz5CaiSd24gvUqAl1huvxFZqOL5CCE98gVxWPBAm3ARgkwaAZSQr+EVWXSDgRuYCoORFB8ZMm1AApQ3WrGlj3RQTyZc4GQJC9pBNEsidwcgDRtiq1ntU6QHq7aMBy5haA2OpQvd5DQK2DKF39E5KmJM3UvBwioHaDMPLiqZtxyRnQky0BW7clLz736XDlZk/lxVxLwj7/avkwFN86tqDYvbEFaHpCYoHmadxs2wklb0IKgHWJCKF4J1TIRjOpmtdFBVgXNeFnqqGmJOZMntcEQF8BMELQTijojtVpSuscmm+dm/lyNWfXbyrbeSKMNyPJOk10QadVxZnm+9xn5vq9cPP9AMXp1ACsR3ZlYEfk0NkuCjTXOje3VCFgR4Bg+Wf/4gz23szYdzbqk3SPcnb5y31kJkXsj58NfY0tObh6ffUp9Xm8LD7ebc/j4TA/+67/t+882ZrfiHT/Fw==);lineShape=1;strokeColor=default;" parent="1" vertex="1">
          <mxGeometry x="279.6530406377938" y="80.45074991364345" width="3.826639281208657" height="0.7735228850747097" as="geometry" />
        </mxCell>
        <mxCell id="vXyiiHO8OHxDcWH09wQb-66" value="" style="shape=stencil(lVZJchsxDHzNXFEEwfXsOP9wleVIFUVyycr2+2AyNRMBCjvxbUQ1QCzdBCZ5eNs/ve6mGN6ul/Pn3ffD83U/yYcpxsNpv7scrvo1yeMkDy/ny+7T5fz19Lz8fn2akfPXl/O32cOPxa43Kn22iuHncsKVGv8++bgYHA+nG4OWKAZjIEKtjA1KopyNQQ6UwQ1SqbIxqEIMDJiyTaF36hnhWTy+9TE++HgUH4D/QGIT7hUmHNbsNnymlBA+2A50oQA6oPhk8YEKjCfaeFpbMxrgc7T4sp4M8N35zySwv66eysEG6sPUgvfPdYyPd/kWiqCekbLlT6vUAX8iVfH1Z4x3fI5UBOLv+BNAfSIl578SN4Rnx+dGDfSX7/Lta0cG+NjsExQ2ig8I1JK/IEFCp+ITCFDwbAPqBRZIo7UCUEE2QDjFu4YxJSgYtvk2fYCg/+QEUP+Br9ULBhGO/QhQQXYo4PfhdQJEG1DeZsJoxgTbMdmmzt+nmPihpGMvAkrMjLE5YA0rPnk8ovQsKY8X0AJlPNsSMXzjZoVY0cdVFCN8tZxLKwlH+G41UKDEbiS+kYIi0MB8gVtUtEKoA/rouGdFUwYqVoPiDBIJrpHrMWfquEjBNa3Czebd29l/GOjHn2Xw5XA8Lrvk7f9+edSjZfGUx18=);lineShape=1;strokeColor=default;" parent="1" vertex="1">
          <mxGeometry x="278.3960388796167" y="79.47117549392578" width="5.591499904981257" height="1.0303007110326499" as="geometry" />
        </mxCell>
        <mxCell id="vXyiiHO8OHxDcWH09wQb-69" value="" style="shape=stencil(lVZdUxsxDPw196qx5U89U/o/mCGQG9KECaEt/x5drxci0duSt4uza8taaeUh3bxs7543A4eX0/HwtPk13p+2Q/o2MI/77eY4nvRrSLdDunk4HDePx8Pr/n7+/Xw3IaevH4ef0w6/Z550Km1icXibV2IIFMKfpe8zYzfuLxmJcjIMqVR4ndCZSjWEnijEdUJVQjeEmqnkdUKq1KIh5Ew9rRMiBTF4zlTBAYGavTInaoLw2cajJza4f3QidGpAA1XIxhML1Cws+T7jI1RA47H4RrEieLLwRL0geHXRLBW1AhebHI0O7B4pZQ8HqY9UxQcDMhNJxF8V1D4TB59ICE8WHs+XX9veNkrMJEAoXlJxUWcV7K+3tfFMdQyz4xp36pOO8MzX9eHfurrAM8hnoOL6UK0FVia7/Ah13FfW2WJdFFnDO315qdav7d8pw3DY2oK6IFBXs+PUhcWpyfeNlWFjcXRwZFFXwtXyu7NMgZasQ6XZ2kydBNiOji1331Jhs+hgdHOu4hN09rqx1TTHoH1FvO83dStMSI7A/zuhWH9reLLIuUHOhEYNtJgSxKa1h2Xl34URPnVNz5SA1NMRVureFiNbvYS9tWg5Iqm11qxxSV6se42Q3QlawMBJleD6QaulIuW69+opSCTE9S+/LzD04+Op+TDudvNL9fJ//zTVpflZm27fAQ==);lineShape=1;strokeColor=default;" parent="1" vertex="1">
          <mxGeometry x="285.0040963236447" y="145.00354604975882" width="6.412813921100792" height="0.5997101230034679" as="geometry" />
        </mxCell>
        <mxCell id="vXyiiHO8OHxDcWH09wQb-71" value="" style="shape=stencil(lVbLbttADPwaXYnlcl88p+l/BIhTC3XtwHH6+PvSFRRLXGuKAD7IEmeXnJkld5CHt/3T626I4e1yPn3f/RqfL/tBvgwxjsf97jxe7GmQx0EeXk7n3bfz6f34PP1/fbpGXp9+nH5eV/g94TKTQa6/8Gd6IxTbvxdfp/jDeFzGZ2p5FR+ZUt0GFCZdA6RSkm1AbRRkBSiZQt4GcAgUwgqhhVrcRqhSXm+hlWoBgOKr1kYFFKGRogMoSdoGtEKRPaAxoMnWKyvAgof7iEgpdlsokK4QdzklYA7TmoOnqQGaciVlL4SClLIJUT0gAOWyuUm9NxgIYTUkp1wmAUIYS9ntkKiAE2E6aPOACIo2qTV1AKC0malmD0joQESqwQMUFG2sc8dSAbSac0r2OmS0Q190nZXZSsnT2kgQQEidl5QYsNQ+1lsACjgPjamoByiyRup0MACwd2ndifsg+j4gdm5VCiAlO0A1eVrhhChzxgvhBO3wWYAI1XUNNiEyaDNc/EixGdRQq5xlXQy5CjLqBpDMLG+Ep7XxIpw+kWRdLkMT5bn73MIjCOfgLRRm196Pz5SSi0fr2/ZSXXwAncLIz359NNbMDYVdPAM2RefeeYtHjSglCuz4RPmn6psvz4f6vlzB52NzGk20z97Y/htvD7fr4ct4OEy3y+V3f520V9NVVB7/Ag==);lineShape=1;strokeColor=default;" parent="1" vertex="1">
          <mxGeometry x="289.0047145377935" y="150.48271269019884" width="0.7280578398533382" height="5.420566135120605" as="geometry" />
        </mxCell>
        <mxCell id="vXyiiHO8OHxDcWH09wQb-72" value="" style="shape=stencil(lVZdc9pADPw1ftXcnXRfz2n6PzITUjylkCG0Tf595TouSOCd8maOXZ2kXdka+OFt+/S6GVJ4Ox0P3ze/x+fTduAvQ0rjfrs5jid9Gvhx4IeXw3Hz7Xj4uX+ef78+Tcjp6cfh1xThfeb1QjVMrBQ+Pk86Vfl78nUm7Mb9BaF1iskShGJbJ9Tub2gF3lAKiRhCLRTqOkGEChtCzsvJTUJSQjYEFsqAEKg3mxFFCJdq4IU4Inh06VOC0YPtp1CA0YPNPVEFzQzENvdIBYgVqFmtAtW8Do9e2gC9kyhGB/+sfQVeq4OntA5n4uLgDcJbcp1BNlZVuut7A6XqEFlLCrSYeBNkYpAMLyKeHSmgkexnXP3eUd+lOzjyTPSNVDiIHheLnOEMx6MkV2oBqoZl1s6NLHiabHQhgdGDja6dhcOXrCMT9LuW6mc1gGSiLzXARsbFrxfDB6Inyn6aIraYj57BeNwJV9Gr1UldA6e1ULYTIo0yeJOVRtHWqycFEFpcnPLPxx1+1rq+Su0N+uFE74TeSKzAXSUHk6WEnj2hAdF0N2A76V1lB6aYlgm3LTAJmC8ldFeDLFXddmm4+h72TPm+K1R81KbrIip8SdxoU8MpXQvR4Q5wQ2q8tmnGzZrponFrjFTvY9y7S/4HQR/Oq+vLuNvNm+/l/37V1aN5TebHPw==);lineShape=1;strokeColor=default;" parent="1" vertex="1">
          <mxGeometry x="289.7280827003821" y="146.58244443589223" width="7.243112193771976" height="3.902968384246426" as="geometry" />
        </mxCell>
        <mxCell id="vXyiiHO8OHxDcWH09wQb-77" value="&lt;font style=&quot;vertical-align: inherit;&quot;&gt;&lt;font style=&quot;vertical-align: inherit;&quot;&gt;Introducir GitHub en el buscador de tu preferencia&amp;nbsp;&lt;/font&gt;&lt;/font&gt;" style="text;strokeColor=none;fillColor=none;html=1;align=center;verticalAlign=middle;whiteSpace=wrap;rounded=0;fontSize=16;" parent="1" vertex="1">
          <mxGeometry x="121" y="-77" width="168" height="38" as="geometry" />
        </mxCell>
        <mxCell id="vXyiiHO8OHxDcWH09wQb-81" value="" style="rounded=0;whiteSpace=wrap;html=1;" parent="1" vertex="1">
          <mxGeometry x="125" y="-19" width="160" height="19" as="geometry" />
        </mxCell>
        <mxCell id="vXyiiHO8OHxDcWH09wQb-82" value="&lt;font style=&quot;vertical-align: inherit;&quot;&gt;&lt;font style=&quot;vertical-align: inherit;&quot;&gt;Preciona registrarse&lt;/font&gt;&lt;/font&gt;" style="text;strokeColor=none;fillColor=none;html=1;align=center;verticalAlign=middle;whiteSpace=wrap;rounded=0;fontSize=16;" parent="1" vertex="1">
          <mxGeometry x="91.12" y="-27" width="218" height="30" as="geometry" />
        </mxCell>
        <mxCell id="vXyiiHO8OHxDcWH09wQb-86" value="&lt;font style=&quot;vertical-align: inherit;&quot;&gt;&lt;font style=&quot;vertical-align: inherit;&quot;&gt;Leer &quot;Introduzca su email&quot;&lt;/font&gt;&lt;/font&gt;" style="text;strokeColor=none;fillColor=none;html=1;align=center;verticalAlign=middle;whiteSpace=wrap;rounded=0;fontSize=16;" parent="1" vertex="1">
          <mxGeometry x="81.53999999999999" y="8" width="259" height="30" as="geometry" />
        </mxCell>
        <mxCell id="vXyiiHO8OHxDcWH09wQb-87" value="&lt;font style=&quot;vertical-align: inherit;&quot;&gt;&lt;font style=&quot;vertical-align: inherit;&quot;&gt;Leer &quot;Introduzca su contraseÃ±a&amp;nbsp;&lt;/font&gt;&lt;/font&gt;" style="text;strokeColor=none;fillColor=none;html=1;align=center;verticalAlign=middle;whiteSpace=wrap;rounded=0;fontSize=16;" parent="1" vertex="1">
          <mxGeometry x="58" y="24" width="312" height="30" as="geometry" />
        </mxCell>
        <mxCell id="HX2jYNRreKxKb6cBB0s7-6" value="" style="edgeStyle=none;curved=1;rounded=0;orthogonalLoop=1;jettySize=auto;html=1;fontSize=12;startSize=8;endSize=8;" edge="1" parent="1" source="vXyiiHO8OHxDcWH09wQb-88" target="HX2jYNRreKxKb6cBB0s7-5">
          <mxGeometry relative="1" as="geometry" />
        </mxCell>
        <mxCell id="vXyiiHO8OHxDcWH09wQb-88" value="&lt;font style=&quot;vertical-align: inherit;&quot;&gt;&lt;font style=&quot;vertical-align: inherit;&quot;&gt;Leer &quot; Introduzca su username&quot;&lt;/font&gt;&lt;/font&gt;" style="text;strokeColor=none;fillColor=none;html=1;align=center;verticalAlign=middle;whiteSpace=wrap;rounded=0;fontSize=16;" parent="1" vertex="1">
          <mxGeometry x="63.650000000000006" y="43" width="288" height="30" as="geometry" />
        </mxCell>
        <mxCell id="vXyiiHO8OHxDcWH09wQb-89" value="&lt;font style=&quot;vertical-align: inherit;&quot;&gt;&lt;font style=&quot;vertical-align: inherit;&quot;&gt;&quot;&lt;/font&gt;&lt;/font&gt;" style="text;strokeColor=none;fillColor=none;html=1;align=center;verticalAlign=middle;whiteSpace=wrap;rounded=0;fontSize=16;" parent="1" vertex="1">
          <mxGeometry x="295" y="18.91" width="60" height="40.18" as="geometry" />
        </mxCell>
        <mxCell id="vXyiiHO8OHxDcWH09wQb-90" value="" style="shape=stencil(fZbdcgIhDIWfZm8zQAg/17Z9j85U606tdqz9e/tmZ0c0uJ47xP0I5JwEBl59bp8/1kNwn6fj4W39M76ctgM/DCGM++36OJ50NPDjwKvN4bh+PR6+9i/z74/n6ctp9H74nlb4nbmSKZeJCu5vngmZ6jzzNAO7cX8FVKEsBuBKrgKg9oAE8gkCbLeUhEoEQKSUDZDLeWYRKIl8MEDRmHwfyBrBG6Amyu4+kDxxMoB3jhwgYu7TVAsVkFcWCs4CTBEoF4RctKeOxHIf8IXYpikHikAIf+MNUW94AGSSaoAoFIE3AlOyeWU+p2E5S9yfQZcQILVuQOwZdJNoS9Ls3wA5u2XZTIHECqeJ9kDpSaauRiNVcAY1QhdBzeLBli5WazpkSsBLV25uRaqWRyFawTQzRRIQYirJzq5atkBqLfouwqUxLBepthWb10vrWZY6UOAeyKCCtDV625mm9gmUC4Wc3VLJMMIE1BsA2FW9JraVlQB7n3c9oMKhCLEvIM1zBPZ25/umNQ1tVEC2G+fFCC8g398O2hNQuQlVu752DBfA+q0ptnqO5JFmeuIuo9DY7KjY71UxdJV4EntifPWorW++R/dC4t7V3DlIB5cHx2bc7eb3yvX//QNFp+bHDT/+Aw==);lineShape=1;strokeColor=default;" parent="1" vertex="1">
          <mxGeometry x="-2.5695107205506247" y="255.73828707619032" width="3.7380318176922627" height="3.7321889730861586" as="geometry" />
        </mxCell>
        <mxCell id="vXyiiHO8OHxDcWH09wQb-91" value="" style="shape=stencil(fZbdcgIhDIWfZm8zQAg/17Z9j85U606tdqz9e/tmZ0c0uJ47xP0I5JwEBl59bp8/1kNwn6fj4W39M76ctgM/DCGM++36OJ50NPDjwKvN4bh+PR6+9i/z74/n6ctp9H74nlb4nbmSKZeJCu5vngmZ6jzzNAO7cX8FVKEsBuBKrgKg9oAE8gkCbLeUhEoEQKSUDZDLeWYRKIl8MEDRmHwfyBrBG6Amyu4+kDxxMoB3jhwgYu7TVAsVkFcWCs4CTBEoF4RctKeOxHIf8IXYpikHikAIf+MNUW94AGSSaoAoFIE3AlOyeWU+p2E5S9yfQZcQILVuQOwZdJNoS9Ls3wA5u2XZTIHECqeJ9kDpSaauRiNVcAY1QhdBzeLBli5WazpkSsBLV25uRaqWRyFawTQzRRIQYirJzq5atkBqLfouwqUxLBepthWb10vrWZY6UOAeyKCCtDV625mm9gmUC4Wc3VLJMMIE1BsA2FW9JraVlQB7n3c9oMKhCLEvIM1zBPZ25/umNQ1tVEC2G+fFCC8g398O2hNQuQlVu752DBfA+q0ptnqO5JFmeuIuo9DY7KjY71UxdJV4EntifPWorW++R/dC4t7V3DlIB5cHx2bc7eb3yvX//QNFp+bHDT/+Aw==);lineShape=1;strokeColor=default;" parent="1" vertex="1">
          <mxGeometry x="19.811360861480807" y="131.00064059181545" width="3.738031817692172" height="3.732188973085795" as="geometry" />
        </mxCell>
        <mxCell id="vXyiiHO8OHxDcWH09wQb-92" value="" style="shape=stencil(fZJLbsMwDERPo+1AIvVdp+k9AsSphbp24Lj53L52taiZ1NpRFJ80JEfx7tIezo0ifZnG4bO55ePUKn5TRLlvmzFPc6R4r3h3GsbmYxy++2M5nw9L5RJ9DdflhXvhUoSzC0X6UTJs4ek3816ALvcrwGgNrQXhIgJvE2kGkgCiRnDbQDDQQQDJwVcAG8AkgJXKfwmyIC+/IERT0QQTRX1w1aZfh0TwodICWOqhiFRbQwI52QBSRb81INlAfUDegeXSDKzfro8eWuoxjCSAOfhz4Sl3XTHx+v7ZtXOqOJ73Pw==);lineShape=1;strokeColor=default;" parent="1" vertex="1">
          <mxGeometry x="4.083488725588154" y="157.34593749133023" width="2.4772466725444247" height="2.477276630413902" as="geometry" />
        </mxCell>
        <mxCell id="HX2jYNRreKxKb6cBB0s7-15" value="" style="edgeStyle=none;curved=1;rounded=0;orthogonalLoop=1;jettySize=auto;html=1;fontSize=12;startSize=8;endSize=8;" edge="1" parent="1" source="HX2jYNRreKxKb6cBB0s7-5" target="HX2jYNRreKxKb6cBB0s7-14">
          <mxGeometry relative="1" as="geometry" />
        </mxCell>
        <mxCell id="HX2jYNRreKxKb6cBB0s7-5" value="" style="whiteSpace=wrap;html=1;" vertex="1" parent="1">
          <mxGeometry x="138.3" y="90.47999999999999" width="141.35" height="60" as="geometry" />
        </mxCell>
        <mxCell id="HX2jYNRreKxKb6cBB0s7-9" value="&lt;font style=&quot;vertical-align: inherit;&quot;&gt;&lt;font style=&quot;vertical-align: inherit;&quot;&gt;&lt;font style=&quot;vertical-align: inherit;&quot;&gt;&lt;font style=&quot;vertical-align: inherit;&quot;&gt;&lt;font style=&quot;vertical-align: inherit;&quot;&gt;&lt;font style=&quot;vertical-align: inherit;&quot;&gt;&lt;font style=&quot;vertical-align: inherit;&quot;&gt;&lt;font style=&quot;vertical-align: inherit;&quot;&gt;Acepta en tu email la verificaciÃ³n de la cuenta&amp;nbsp;&lt;/font&gt;&lt;/font&gt;&lt;/font&gt;&lt;/font&gt;&lt;/font&gt;&lt;/font&gt;&lt;/font&gt;&lt;/font&gt;" style="text;strokeColor=none;fillColor=none;html=1;align=center;verticalAlign=middle;whiteSpace=wrap;rounded=0;fontSize=16;" vertex="1" parent="1">
          <mxGeometry x="140.12" y="116.98" width="141.42" height="7" as="geometry" />
        </mxCell>
        <mxCell id="HX2jYNRreKxKb6cBB0s7-32" value="" style="edgeStyle=none;curved=1;rounded=0;orthogonalLoop=1;jettySize=auto;html=1;fontSize=12;startSize=8;endSize=8;" edge="1" parent="1" source="HX2jYNRreKxKb6cBB0s7-14" target="vXyiiHO8OHxDcWH09wQb-40">
          <mxGeometry relative="1" as="geometry">
            <Array as="points">
              <mxPoint x="185" y="372" />
            </Array>
          </mxGeometry>
        </mxCell>
        <mxCell id="HX2jYNRreKxKb6cBB0s7-14" value="" style="rhombus;whiteSpace=wrap;html=1;" vertex="1" parent="1">
          <mxGeometry x="160.12" y="164" width="80" height="80" as="geometry" />
        </mxCell>
        <mxCell id="HX2jYNRreKxKb6cBB0s7-17" value="&lt;font style=&quot;vertical-align: inherit;&quot;&gt;&lt;font style=&quot;vertical-align: inherit;&quot;&gt;Yes or No&lt;/font&gt;&lt;/font&gt;" style="text;strokeColor=none;fillColor=none;html=1;align=center;verticalAlign=middle;whiteSpace=wrap;rounded=0;fontSize=16;" vertex="1" parent="1">
          <mxGeometry x="155.62" y="184.98" width="89" height="30" as="geometry" />
        </mxCell>
        <mxCell id="HX2jYNRreKxKb6cBB0s7-18" value="" style="shape=stencil(lVbbUuswDPyavGps+apnLv/BDIVmKC1TCuecvz8KIWmtNMvw5rraWNKu1u7Czfv24W3TsXs/HQ8vmz/942nbhduOud9vN8f+pKsu3HXh5ulw3DwfDx/7x/H328MQOaxeD5/DF/6OOHZU6oBi92/cCZT918b9GL/r9xfxkam28Vyo8DpACmVuADVRyAAgFHwLKFTjOsA7R841CHGU8REmJwmUAgBU4jYnyeRBTpJIDEA/gdrEJKUFCKW0DqhagzSAiz5cR2SKvDgCcF21Kc4W4VFOnjjaNjnQpiJUsyUigpQU8M3TBdUJnFAdcXuCqqkAqrUGafuqeuUCANGmpH2LgOq6nAimAE7QEiVYACO5RvKLlBxSX7Y8aFUZMK1CqKkFZBI8ctW0VagAtQ4AMxBMSWBKpT1BhzAALWnRxYhPmUEpxYXPCDECOKoLgKABKhTFAr79eU18dqbr5Aur8jYpKffIBH4LYHXGtoYwc38dQKWVkp+Jue73U8/n+AhLdtP4zvEML6DlbTJ5+Uq4YUA5BMPsraemqV1XwwP5NvkAFaeKbw3Yw9u82KFUMwU24edr9RyPbhy/uEA0HvUmT7Z2jkdvC68j7025Anzxt4+dn+N1cX5ZPfW73fgwu/zfvsR0a3zFhbv/);lineShape=1;strokeColor=default;" vertex="1" parent="1">
          <mxGeometry x="142.44751265965544" y="184.97504109747683" width="4.77905196852783" height="5.49567502497383" as="geometry" />
        </mxCell>
        <mxCell id="HX2jYNRreKxKb6cBB0s7-19" value="" style="shape=stencil(lVbLbuMwDPwaXwmKkijp3Md/FGi6MTZNijTtbv++NAwjNrWZRW+yzJHIIYfUEO/e909vu0H4/XI+/d79GZ8v+yHeDyLjcb87jxdbDfFhiHcvp/Pu1/n0cXyev9+eJstp9Xr6nE74O+NKJkkTSvhr3okU5o3H2f4wHlf2NVHUjX1iKvE2oAUKsgGoErfbgMBMzBtEKxQKuKKSbq+wHc4AkIijB1QAqErF3dAo1duAUiipB1QA0EISNoAVD/9E5LLEuL4CZCLVLmoLAtyQutQZTSjX0VxygEJNAECXxK4AjG6wVLug7QgFMSQS51KmFACtQuJcSrA2NFCrHpABoAhF6QCApSpdDIkKKKbGpNEHHUGmjUQtnlYGLlnleEEoVaRRKzWXuEIFJM48rs0Xn4IYalvyuipvFHS1xsUegGgtRmsn6gZamTLFTqJID5mpJg/IgNZk3brrZA0ATECcPEAASyZRduVdKCKJ/hQgVv1bWm1CCCiNkChsabUZVEEeuoESKYIWwIveF3OhjAL2OQtUUdktf6/maOAGa1dbpVkVAuen2JKzF+S9LNP4ao+UPw0F9fZoTLGfCQyHea79+RnEq5mCG5zEwN5E7CZzIAX8l0htmy9r38D/nz6o/m9vi+vr7WU8HObH3/q/f+3Z1vxSjA/f);lineShape=1;strokeColor=default;" vertex="1" parent="1">
          <mxGeometry x="149.45716186644313" y="181.50041281882807" width="1.4384749608495337" height="16.713012774075576" as="geometry" />
        </mxCell>
        <mxCell id="HX2jYNRreKxKb6cBB0s7-21" value="" style="shape=stencil(lVbZctswDPwavWJIgOdzmv5HZuLUmjh2xnFz/H2hqrJNUN5O3nTsEuACWHKQu7ftw+tmYPd2Oh6eNx/j42k7yI+BedxvN8fxpE+D3A9y93Q4bn4dD7/3j/P768OEnJ5eDu/TCp8zr1ZKZWKx+5q/CCX398PPGb8b91f4XEl8g1dCqLcJKSy/zwEyVUAITCk1hJQol9sE9pS4IdRMBURgR1FaQllirhJ8oWAIZxnWCbGLUClnQGDy0RKQSppwF6CCLUSSbv0EEtIiBIv/l+Eq3lGuVtIA8nHknK0ZyseRmHwSFSRol08iL6DryLdjULWEAcwBcYdH+ngVKFqCQy0UiKWLADLymSR1W0ARKhVnNXJobjwJd0VgSMhmD3mZ1VsE17rL1EZ4D1Yl7VNESBRzNwhIVrGGN00aqHSnqnfnZl93SJJqA2RQBlkG69qM0A5InNU0A4nc0mZXRatgfcV3o4xG7bt4JRh/T5Eq2EDwVNsIon0KCDFaN1X/Y+BeOVBsI/Ai8jpeJ7Gdfg/nIKu9ZIN3QCI9lWPbEw66V9HtVYNnkH+JPR6ZV9GpdRYP1q+eQjB4D/Svao5s8AFcEdSnos0ftfTFdS76R1AvnUDjKrycJzdOg+78Y3hl+e417f94fbjcCZ/G3W6+Ul7/t3dI/TTfP+X+Dw==);lineShape=1;strokeColor=default;" vertex="1" parent="1">
          <mxGeometry x="237.50228041892035" y="181.65321807751684" width="2.8098667454980837" height="12.233851177747963" as="geometry" />
        </mxCell>
        <mxCell id="HX2jYNRreKxKb6cBB0s7-22" value="" style="shape=stencil(lZfdbtswDIWfxrcERVp/1133HgWaLsGypEjTbX370jCURnR8st05sr6QIo9IetCHt+3T62YQfjufjj83f3bP5+2g3waR3WG7Oe3O9jTo46APL8fT5sfp+H54nn+/Pk07p6dfx9/TP/yduUhSJkj4Y14IpPPC93n7fne42h5GGlO/v1Aa1wFRitIBGinrOmCvC3dANAtpHRgrld5CGSnLOhAjpf7MNZECl5JS1R4Q4rwOZCHpz5ALjXUdKErch9WcZBDWankbO0BKs7kGJAdkSgEAiSR6IIA8GFBrD9gKcilTXgAFWSgUk3cJRqmSiAdGIA0DcvBARS5VqtnnAYZ1CVRSFKXaxHwF1IgP3SdOmSKyYGGtHihArZY4d+M0EIOqYQAvAXSG5MvS5NIdeWcPKEpcXMjbAg3utAG8SFzALgVnoWDxRRr7Q8vlhqxFidUDgoHsgNTkuJY4V72nK4oSV0jDwgK+QE4a0xmQS5ViXkQJAzX4PCiIUmAm7su3pRrVezNR1AMZF6b/A0puPfDSIBIlIKacfJiKVQHU5EwbvVxNjwiwtsw9cBW4253a7lyfiZJaRb89CwQKfZgSN0HeTl1pUriUgTtdzpc+MQOgkvGitsJxiX2IpOV9bbvTHQkID1PowxkoAV1zc/VrewCiZt+dufXG26H3F9/MgUIRqIrbHsC/i1czVpr66YhbpVzZXop3BgRyMQMzHO5GPz3i7hpbCf+3ifzuAG8PX8P/y26/n78drt/7jwVbmj809PET);lineShape=1;strokeColor=default;" vertex="1" parent="1">
          <mxGeometry x="237.50885150345948" y="182.60186833751698" width="11.60144577027805" height="13.479750384497656" as="geometry" />
        </mxCell>
        <mxCell id="HX2jYNRreKxKb6cBB0s7-23" value="" style="shape=stencil(lZbbbtswDIafxreESOpAXffwHgWaLsbSpEjTbnv7yTPshWxEo3eOw08m+fOXNPDd+/7pbTdQeL+cTz93v8bny37g+4FoPO535/HSngZ+GPju5XTe/TifPo7P8++3pylyeno9fU4r/J45goITROHP/CJACP9ePM7hh/F4FY4JQlHxFbj245kBs4onBsI+kCLUoACuINIHJEAmBSSBUvpAFUANFASMLlB0zYWAkwO0nkQNtKp8oCQNCOTsAlWnJK3Rjm4TIBooUBzhppSM0AS0UbRWumYIjtKtraJHr73JjtKTcOYLaxtuAwWiWKB4bc0gyaYUfIBZA80gXpeS1aHiFiD6C5KXqrpf0AYSXBrdqwHNeBdInh8yZJ1SG293+AqQAVpKvnBSLRB8T6dsgY3xNrNUeMuituiyaN91HFkdklMDhnXrvZKa/E+IMUQAIRdIOqcalyV6QDAeLVC9lAT4q+W86WvbkC76qg9dAr9FtCMC9TjJegb0DqGoN/Dc1HSqYLJVtCXQmT+MkHUREZclbgJkLcTRLQEh652sncTkxqPOh3FR8mZ8WM6n9VwXV+cArNenBOy4oSmq56hlmJzB++IdLIuGvXidP7Jr5wBkrAbRDU86/XXf73Q/aF/ysid3wpMeT3TDyV54WvHObH7zSrgZ3h7+3z5fxsNhvrxe/29vq+3VfNPlh78=);lineShape=1;strokeColor=default;" vertex="1" parent="1">
          <mxGeometry x="238.08874389962034" y="202.71390203264536" width="14.248030943102775" height="2.052538847924345" as="geometry" />
        </mxCell>
        <mxCell id="HX2jYNRreKxKb6cBB0s7-25" value="" style="shape=stencil(lVjZbtswEPwavS6WN/mcpv8RIE5t1LUDx73+vkuoss1de4S8OcqMyJ09ONQUnj62L++byfPH+XT8vvm9ez1vp/Bl8n532G5Ou7P8msLzFJ7ejqfNt9Px5+F1/vv9pSP7rx/HX/0Nf2YeU+ZO8vx3ecDzg68zfL873MAdU6sD3lGpAN+Iw4D31MpjfHAU/ICPFNpjfMzEacAnSuD9qVEc95OXBe/ii6ecFb6mx/gaKIz4Qg68v4n+Rb2/RYBPxFW9//+C9/GFyqin8xTRAo38GIBkwGNCGxWNUhIOldClxC4xe2KQZFkiuzFoeRIAoVIZVW2OHJYpjEHIEw/y3KQsxzzIJgtIdG3k2pgIxq1WPfmil4ioViPVMXVdByBTlqijjrphgmdNqCBzQuCiCQURsp4vQsggc51gMhdXVjAENAI6wcTgQG30oLMmMOgIITgVtKyJCWpKCqEilUSTYghgTgpBtVzLa6VRjKwM5oYQqjOy4lqqplrR7OsEs6W0EoPJdMZbyoZQUS3JBmzHgSHQM90MAcvq7QorxWfyULFKbAho4OfLkXabB9RAQvCaEIDL6ISkCR4HzbZacS05FQM+qHseTE+vdFz8dE9/iiDng81DRmbGm1OxUkCEtpyyN4SG7E8wW6pUQT9IiCmYoNEKZfFrN1aAQR5kA3nsuHKxH4/cibJk63ZGNVB3TMhsVH1OiyeLWKU2riCur2E7o4Kuy0n/0LZqPIOZ0W1x1O8HmnbbPaa5wP2LrVdjsiw+//61IVEb8ZkyGDByLfHjfuSagTxuXab69RqDrgFyrVJnG84XUxyL2kE5WdsFccOgBZi8gYNi4CW0Kxz5WtY3NokdSM+6WZgKmLvmbsGUQC8K3Ct4hLorOyvKQt3VocHQ4bAuMl7RPWghUQ+ytoD4+vHJDwOrcPlx/Qbxttvv508Yt//X3yzk0fy9Izz/Aw==);lineShape=1;strokeColor=default;" vertex="1" parent="1">
          <mxGeometry x="206.01134964257176" y="155.97493322170112" width="59.699156320282704" height="50.99525737566582" as="geometry" />
        </mxCell>
        <mxCell id="HX2jYNRreKxKb6cBB0s7-26" value="" style="shape=stencil(lVbLctswDPwaXXdI8AHynKb/kZk4tSaunXHcPP6+UBW5BmIhk5tMY0lgdwFySDfP27unzUDh+XQ8PG5ex/vTdkg/BqJxv90cx5N8Del2SDcPh+Pm1/HwZ38//366myKnr9+Hl2mHtxnXEeoEovA+L2RGyv9Wfs7xu3F/EZ8LqCgAFQRaB7RiT4gI7MQ3sD4gIIT1+E7I0ez/sXA9vqDqfAqiU3BviCb/gOYd0FF1AZHRkgvobCnNxQWErgCJ0LoDYMSgAR2pOoAM0qTmjNgcQAAbQEVzamgVXdcgxgtODS0hJ5tSc1JqAcmcEFxauYEMS3kx+3UAWx1IqnK8JIAPEs/W6CCnaEkpGy/RIuVa0ay9VBEdswqrXdcc0R1jNEbROkt3er6IIDLx1el+MZ5pnrS065qzjStkfHjdLHwbBcpik6uAGM7j5ywyLZytHWEoSuI7vzub1iyx352fZnAmsHeCiKpVkO4kZ2h/G1BkAOkpybRUdZ1XBmnhuq9clAGkU7qQZkU6dE2TSMMOgNG1cJMyTkpycWjdxL3FmRdke61/UYDtnZaRHU6DpXSaaG68cTbHZXqsxBe9f5XeceqNiynPN63cOs7+yd4hxb90ZLSZ/YN7hXz3rfN1vHz8f1g9jLvd/C67/N8+xGRpfsSl278=);lineShape=1;strokeColor=default;" vertex="1" parent="1">
          <mxGeometry x="206.67673150937367" y="154.2382794256988" width="2.871921089829082" height="1.3979637251307666" as="geometry" />
        </mxCell>
        <mxCell id="HX2jYNRreKxKb6cBB0s7-27" value="" style="shape=stencil(lZbdbtswDIWfxrcEJer3uu3eI0DTxViaFGm2tW8/eYYcU4pP0TvH4SeZh4cSB3l4P+ze9oPl9+vl/Gv/d3y+HgZ5HKwdT4f9ZbyWp0GeBnl4OV/2Py/n36fn+ffbboqcnl7Pf6YVPmZOyNkJsvw5v2By7v+LH3P4cTytwo0nFhVvDDneBsRSCAqwiThsA14oZQW4AoAdErcpxLKEbAM5UUoKyJZsBkAmZzQgMIcCJNaAIwNkLUDWSWcPZZ2AqIFA0UIgOg1Eyh4ComUtuuUEZY260mWJgGRNZPQOhhmWunyy67ZIaItAqQMEVS7Uv1dZO5R1IO50FeQ+T7nRNdSe2tyhcZ+jiAHp7OpRqYt1uoYIyEwlxdgCjPxdWrhJ2tTKbAGh28Fgf1vfAjFCIORWpYgbIvu2DhnssHLzqtQWmam4uTOTxweNayq3CLela+4awuEmFdcCGZU6UkgdgD4pEvsW8Eil7wKxaKIbIhl44PviZu0N7+FRJtwe+OLriX7fG0JGf5LJVbf7QL0OlpzJgPWZsg5PUCGuHliuUNgKTFavHr4Ib2aGIiY4v7quceSAf7hVUuD5yyTaPBa2JNdbdalTPfo2ymS0+bmOPxvh0TThFtx/y5hyC0fXpaUU23CQ6jdHwS/Dy8Nt6nwZj8d5aF3/306p5dU84crTPw==);lineShape=1;strokeColor=default;" vertex="1" parent="1">
          <mxGeometry x="205.18260016285592" y="155.32539380743287" width="9.779674655922165" height="4.906320995437212" as="geometry" />
        </mxCell>
        <mxCell id="HX2jYNRreKxKb6cBB0s7-28" value="" style="shape=stencil(lVbLjtswDPwaXwlSlGTpvN3+xwKbbYymySKbvv6+TA05phJP0ZsfMxI5GpIa9Olj//K+GwJ/XM6nr7uf0+tlP+inIYTpuN+dp4s9Dfo86NPb6bz7cj59P77O7+8vV+T16dvpx3WFXzMvUByvpMC/5w9FKMvfL59n/GE6rvCSqLAj5EIBENQI2RFipaDbhKwUxRFCopS2CTWRREfgltRjfCblDs8M8CPF3OG1AHyh5BMQSiieSurjNwVQvpVKcniTGAgqvOS3HDLFCDcYvSlEiAMkSPEEJQWmMIlC9YREjHIem8kWQibGh8zaEwLaIVK5CylVQFCqXlWJJGgHJelkDcTISIFGL2uljIxqeG/UTBVpZAF5UWNz+ha+dJVJCoxnknY+4rbAViHXu8JE8YxNvhteEL7c2ZQYnXBtv2/5jmh9q5vQFSZsLJWqX3+khNfvLWoJ4wS6VmqOgw4qrfmvPJ1Qq7CIO0mtGaFW8ZAATJEziS/kKK3fPx44hapvpzlBgtg88mVTImVQyLmV+VKWFfooNVeu8EgjayPeRqsO/jjl3qe2QQYbhH5g2rmPYH3pB6adogI8N/kWfKIIBOK+uVunQRP2bp5VswSMh308pbTOtIHvBnLJlECj4/6KYwZKQH9pg2XBhzbSN87r/y5p/8bbw+1G+DYdDvOFcv2/v0Hap/n2qc9/AA==);lineShape=1;strokeColor=default;" vertex="1" parent="1">
          <mxGeometry x="208.42977399535766" y="152.4688594434482" width="5.6398957889091745" height="2.5221893115345484" as="geometry" />
        </mxCell>
        <mxCell id="HX2jYNRreKxKb6cBB0s7-29" value="" style="shape=stencil(rZbbbtswDIafxreESEqidN1171GgSWMsS4o0Xdu3L11DSUTXHAbszpb5STz9tAa+e9k9PG8GCi/n0/HX5m18PO8G/jEQjYfd5jSe9Wng+4HvtsfT5ul0fD08zu/PD5Pl9PT7+Gfa4X3mCkGRiaLwMa9kIPxa+Dnb78fDrX2FEDv7SBBlHcAQIISOqBGQ1olaIPUu1QQ1OgBDwh4QSNUJIgGnHihQwzogsTlwASoIrwOZgUsH3OThWyKhLYQekcs6EBEy2SCKcwIzSLBpimkdoLKIOoE4LpFAMQBDzY5LAZKJgQCdEzhDrj0QIDuFiOpx3xvawdFxKeW23wXQtDqKyAWYLCBOu0qFFK1L5NRBPyPZoNmpdM0Qcg8giCPSqdX6oK+aWgOiOUE15Wk0LUQtEByXNIlsTiiuS1Ka5m8E5AFZgIoFqtN8KS0UV6E4hYsRygJAB9D2DmSz5I0+FRAaxeWWtzWJislSbJX5PwCSHa76h6hO0Iv/Q3ZHa2hqbOYJ0HGHW0mbObtTtVoxk5tOzJB64WBrqu+zqc722dQJ6M3s2Eb61T44/mjHid3f/etoLYuxZ08zmj009p5kBG0zIFSnWiJW9QzkNEPRdPdjJUJ28vPP152/2uvD9W61Hff7+Wp2+93exXRpvsfx/Sc=);lineShape=1;strokeColor=default;" vertex="1" parent="1">
          <mxGeometry x="214.41116622776178" y="153.36764074525684" width="0.6313842409500321" height="4.035344190014195" as="geometry" />
        </mxCell>
      </root>
    </mxGraphModel>
  </diagram>
</mxfile>
